<?xml version="1.0" encoding="utf-8"?>
<!-- Generator: Adobe Illustrator 23.0.0, SVG Export Plug-In . SVG Version: 6.00 Build 0)  -->
<svg version="1.1" id="Layer_1" xmlns="http://www.w3.org/2000/svg" xmlns:xlink="http://www.w3.org/1999/xlink" x="0px" y="0px"
	 viewBox="0 0 595.28 841.89" style="enable-background:new 0 0 595.28 841.89;" xml:space="preserve">
<style type="text/css">
	.st0{stroke:#000000;stroke-miterlimit:10;}
</style>
<path class="st0" d="M-1511.57,57.78"/>
<path class="st0" d="M164.52,523.68l23.04-221.76l7.2-72l2.88-30.96l10.8-125.28l5.76-3.6c-0.89,10.98-1.77,21.96-2.66,32.93
	c-0.22,2.67-0.43,5.34-0.65,8.01c-2.5,30.99-5,61.98-7.5,92.97c-3.36,39.84-6.72,79.68-10.08,119.52l-7.2,72.72l-5.04,132.48
	L164.52,523.68z"/>
<polygon class="st0" points="225,546 239.4,551.04 248.76,235.68 251.64,165.84 255.24,33.36 248.04,33.36 230.04,409.92 
	225,543.12 "/>
<polygon class="st0" points="306.53,20.4 312.84,11.82 318.6,20.4 329.4,310.56 338.76,582.72 318.6,576.24 "/>
<polygon class="st0" points="370.44,33.36 374.76,33.36 378.36,38.4 412.92,396.96 431.64,613.68 415.08,606.48 392.04,314.16 "/>
<polygon class="st0" points="410.76,70.08 451.08,403.44 474.84,622.32 484.92,630.24 473.4,532.32 415.8,73.68 "/>
<polygon class="st0" points="220.32,101.4 214.2,109.68 214.2,103.56 225,91.68 237.24,80.88 242.28,76.92 242.28,81.96 
	233.28,89.52 225,96.72 "/>
<polygon class="st0" points="257.76,70.08 257.76,74.4 257.76,76.92 272.16,70.08 283.32,66.48 293.76,65.04 301.32,65.04 
	306.53,65.04 306.53,58.92 297.64,58.92 286.92,58.92 275.4,61.8 266.04,65.04 257.76,67.92 "/>
<polygon class="st0" points="322.64,55.68 322.64,61.44 331.92,63.24 340.56,65.04 345.96,65.04 354.96,67.92 360.36,70.08 
	367.56,72.6 370.44,72.6 370.44,67.92 361.44,64.14 351,61.08 342.36,58.92 335.16,58.92 "/>
<polygon class="st0" points="384.12,76.92 384.12,83.4 394.92,89.16 403.56,96.72 410.76,107.52 414,107.52 406.08,96.72 
	399.06,89.52 393.48,84.48 "/>
<polygon class="st0" points="216.36,67.92 216.36,96.72 242.28,72.6 244.08,72.6 244.08,39.84 232.92,51 225,58.92 "/>
<polygon class="st0" points="257.76,32.28 278.28,25.08 297.64,21.12 304.2,21.12 304.2,55.68 290.88,55.68 279.36,58.92 
	265.32,62.16 257.76,67.92 "/>
<polygon class="st0" points="321.12,21.12 322.64,53.52 340.92,55.68 350.28,58.92 360.72,61.8 370.44,64.14 367.92,33.36 
	356.4,28.68 342.36,24 328.68,21.12 "/>
<polygon class="st0" points="380.52,42.63 384.12,72.6 394.92,82.68 401.04,88.8 410.76,99.96 408.96,71.29 405,64.14 397.44,55.68 
	388.44,47.4 "/>
<rect x="300.96" y="70.08" class="st0" width="5.57" height="8.64"/>
<rect x="300.96" y="86.64" class="st0" width="5.57" height="10.08"/>
<polygon class="st0" points="300.96,102.84 306.53,102.84 308.54,112.92 303.74,112.92 300.96,112.92 "/>
<polygon class="st0" points="300.96,119.04 306.53,119.04 306.53,128.76 303.74,128.76 300.96,128.76 "/>
<rect x="300.96" y="136.68" class="st0" width="5.57" height="9.72"/>
<polygon class="st0" points="300.96,153.96 308.54,153.96 308.54,162.96 303.74,162.96 300.96,162.96 "/>
<rect x="300.96" y="171.96" class="st0" width="7.58" height="10.8"/>
<polygon class="st0" points="303.74,191.76 303.74,203.28 308.54,201.48 308.54,191.76 "/>
<polygon class="st0" points="304.2,210.12 310.65,210.12 310.65,221.64 303.74,221.64 "/>
<rect x="303.74" y="231" class="st0" width="6.9" height="12.96"/>
<polygon class="st0" points="255.24,83.4 259.92,80.88 259.92,91.68 253.57,94.92 "/>
<polygon class="st0" points="253.43,99.96 259.92,96.72 259.92,105.36 253.57,109.68 "/>
<polygon class="st0" points="253.43,114.72 259.92,111.48 259.92,122.28 253.43,126.96 "/>
<polygon class="st0" points="253.43,130.2 259.92,128.76 259.92,138.84 252.3,141.54 "/>
<polygon class="st0" points="252.3,149.28 257.76,146.4 257.76,157.2 253.57,160.08 "/>
<polygon class="st0" points="251.64,165.84 257.76,162.96 256.74,175.2 251.16,177.36 "/>
<polygon class="st0" points="251.16,182.76 256.68,180.96 256.68,191.76 251.16,194.28 "/>
<polygon class="st0" points="250.1,203.28 257.76,199.68 257.76,210.12 250.1,215.88 "/>
<polygon class="st0" points="250.1,221.64 256.11,220.2 256.68,231 248.88,232.79 "/>
<polygon class="st0" points="250.1,241.8 256.68,239.28 256.68,250.8 248.16,255.86 "/>
<polygon class="st0" points="321.12,68.28 327.24,68.28 327.24,76.92 327.24,78.72 321.12,78.72 "/>
<polygon class="st0" points="321.12,84.48 327.24,84.48 327.24,93.12 327.24,94.92 321.12,94.92 "/>
<polygon class="st0" points="323.12,118.68 329.24,118.68 329.24,127.32 329.24,129.12 323.12,129.12 "/>
<polygon class="st0" points="323.12,100.69 329.24,100.69 329.24,109.33 329.24,111.13 323.12,111.13 "/>
<polygon class="st0" points="324.18,136.32 330.3,136.32 330.3,144.96 330.3,146.76 324.18,146.76 "/>
<polygon class="st0" points="324.12,153.96 330.24,153.96 330.24,162.6 330.24,164.4 324.12,164.4 "/>
<polygon class="st0" points="325.12,171.6 331.24,171.6 331.24,180.24 331.24,182.04 325.12,182.04 "/>
<polygon class="st0" points="326.12,192.3 332.24,192.3 332.24,200.94 332.24,202.74 326.12,202.74 "/>
<polygon class="st0" points="327.18,210.66 333.3,210.66 333.3,219.3 333.3,221.1 327.18,221.1 "/>
<polygon class="st0" points="328.18,232.26 334.3,232.26 334.3,240.9 334.3,242.7 328.18,242.7 "/>
<polyline class="st0" points="374.25,82.94 368.28,80.88 368.28,89.7 374.25,92.22 374.25,84.48 "/>
<path class="st0" d="M368.28,99.96"/>
<polygon class="st0" points="368.28,94.92 370.44,105.91 376.14,107.52 375.56,99.96 "/>
<polygon class="st0" points="370.44,112.92 370.44,123.9 376.14,123.9 376.14,115.44 "/>
<polygon class="st0" points="372.21,129.12 372.21,138.48 376.14,140.28 378.66,140.28 376.14,132 377.97,131.25 "/>
<polygon class="st0" points="374.25,146.76 374.25,153.96 378.66,158.46 379.36,149.26 379.16,146.76 "/>
<polygon class="st0" points="375.44,164.4 375.44,173.76 380.52,176.82 379.36,164.4 "/>
<polygon class="st0" points="376.14,182.76 376.14,191.76 382.82,194.28 382.04,184.19 "/>
<polygon class="st0" points="377.98,199.68 377.98,212.28 384.12,212.28 382.82,202.74 "/>
<polygon class="st0" points="379.48,221.64 379.48,231 385.78,232.79 384.12,221.64 "/>
<polygon class="st0" points="381.05,239.28 381.05,250.44 385.78,252.96 385.78,242.7 "/>
<polygon class="st0" points="385.78,89.7 385.78,94.92 389.16,99.96 389.16,93.3 "/>
<polygon class="st0" points="387.47,105.91 387.47,112.92 391.68,116.16 389.58,109.68 "/>
<polygon class="st0" points="389.16,121.92 389.16,130.92 393.12,130.92 393.12,123.9 "/>
<polygon class="st0" points="389.58,138.12 391.14,146.76 393.12,146.76 395.64,141.54 "/>
<polygon class="st0" points="391.68,155.4 392.61,164.4 395.64,166.56 395.64,155.4 "/>
<polygon class="st0" points="393.66,171.96 393.66,180.96 397.8,182.76 399.06,174.48 "/>
<polygon class="st0" points="396.36,191.76 396.36,199.68 401.04,202.74 399.06,191.76 "/>
<polygon class="st0" points="396.36,207.78 398.7,220.2 402.48,221.64 402.48,210.66 "/>
<polygon class="st0" points="399.42,231 401.04,237.48 404.28,242.7 404.28,232.79 404.28,231 401.04,229.2 "/>
<polygon class="st0" points="401.04,249.36 401.04,260.16 406.08,262.68 406.08,251.16 "/>
<polygon class="st0" points="196.92,296.16 210.24,285.36 219.96,278.16 228.24,273.12 236.75,269.58 236.25,280 225,287.91 
	216.83,292.2 206.28,299.4 198.72,306.24 "/>
<polygon class="st0" points="252.42,262.68 252.42,273.84 271.08,269.58 286.56,265.56 303.74,262.68 310.65,262.68 310.65,252.96 
	300.24,252.96 281.53,255.86 267.12,259.08 "/>
<polygon class="st0" points="330.24,252.96 330.24,262.68 345.6,265.2 360,267 376.14,269.58 385.78,273.84 385.78,262.68 
	370.44,258 358.01,255.86 345.24,252.96 "/>
<polygon class="st0" points="403.56,269.58 403.56,278.52 404.28,281.76 413.64,286.08 423.72,292.2 433.44,301.2 438.24,297.27 
	428.76,287.91 420.9,281.04 408.96,272.4 "/>
<path class="st0" d="M240.12,89.7c0,0-3.96,3.42-3.96,5.22s0,1.8,0,1.8h6.12L240.12,89.7z"/>
<polygon class="st0" points="240.12,103.2 236.16,109.68 240.12,111.03 "/>
<polygon class="st0" points="239.22,118.41 236.16,126.42 240.12,128.76 "/>
<path class="st0" d="M231.84,247.57c-0.25,0.63-0.49,1.23-0.72,1.79c-3.6,9-3.6,9-3.6,9h6.12l-2.05-10.16L231.84,247.57z"/>
<path class="st0" d="M233.64,226.5c0,0-8.28,11.88-3.06,9.45c5.22-2.43,5.22-2.43,5.22-2.43L233.64,226.5z"/>
<path class="st0" d="M235.8,210.12c0,0-7.67,4.86-3.47,4.59c4.19-0.27,4.19-0.27,4.19-0.27L235.8,210.12z"/>
<path class="st0" d="M235.8,187.62c0,0-8.39,4.86-3.47,6.66s4.91,1.8,4.91,1.8L235.8,187.62z"/>
<polygon class="st0" points="237.24,170.16 231.07,174.12 236.16,176.82 "/>
<rect x="303.36" y="400.48" class="st0" width="5.57" height="9.72"/>
<polygon class="st0" points="334.97,454.28 342.55,454.28 342.55,463.28 337.76,463.28 334.97,463.28 "/>
<rect x="242.02" y="465.38" class="st0" width="7.58" height="10.8"/>
<polygon class="st0" points="383.38,284.1 383.38,295.62 388.18,293.82 388.18,284.1 "/>
<polygon class="st0" points="335.76,394.72 342.21,394.72 342.21,406.24 335.31,406.24 "/>
<rect x="333.78" y="425.58" class="st0" width="6.9" height="12.96"/>
<polygon class="st0" points="303.24,276.36 307.92,273.84 307.92,284.64 301.57,287.88 "/>
<line class="st0" x1="280.92" y1="-28.28" x2="280.92" y2="-19.64"/>
<polygon class="st0" points="303.28,374.15 309.77,370.91 309.77,381.71 303.28,386.39 "/>
<polygon class="st0" points="250.1,287.25 256.59,285.81 256.59,295.89 248.97,298.59 "/>
<polygon class="st0" points="248.34,381.53 254.46,378.65 253.45,390.89 247.87,393.05 "/>
<polygon class="st0" points="303.77,345.3 309.28,343.5 309.28,354.3 303.77,356.82 "/>
<polygon class="st0" points="248.47,355.83 256.13,352.23 256.13,362.67 248.47,368.43 "/>
<polygon class="st0" points="249.62,330.86 255.63,329.42 256.2,340.22 248.4,342.01 "/>
<rect x="384.39" y="307.18" class="st0" width="5.57" height="8.64"/>
<rect x="329.46" y="295.81" class="st0" width="5.57" height="10.08"/>
<polygon class="st0" points="245.81,410.2 251.38,410.2 253.39,420.28 248.6,420.28 245.81,420.28 "/>
<polygon class="st0" points="307.86,453.92 313.43,453.92 313.43,463.64 310.65,463.64 307.86,463.64 "/>
<rect x="306.5" y="427.2" class="st0" width="5.57" height="9.72"/>
<polygon class="st0" points="329.66,319.02 337.23,319.02 337.23,328.02 332.44,328.02 329.66,328.02 "/>
<rect x="244.08" y="437.43" class="st0" width="7.58" height="10.8"/>
<polygon class="st0" points="330.9,272.22 330.9,283.74 335.7,281.94 335.7,272.22 "/>
<polygon class="st0" points="330.45,343.4 336.9,343.4 336.9,354.92 329.99,354.92 "/>
<rect x="332.85" y="368.34" class="st0" width="6.9" height="12.96"/>
<polygon class="st0" points="251.27,307.68 255.95,305.16 255.95,315.96 249.6,319.2 "/>
<polygon class="st0" points="302.07,324.47 308.56,323.03 308.56,333.11 300.94,335.81 "/>
<polygon class="st0" points="302.02,296.89 307.48,294.01 307.48,304.81 303.28,307.69 "/>
<polygon class="st0" points="236.88,133.26 233.82,141.28 237.78,143.62 "/>
<polygon class="st0" points="236.88,150.22 233.82,158.24 237.78,160.58 "/>
<rect x="242.36" y="493.33" class="st0" width="6.9" height="12.96"/>
<rect x="305.83" y="486.85" class="st0" width="6.9" height="12.96"/>
<rect x="307.2" y="513.34" class="st0" width="6.9" height="12.96"/>
<rect x="308.61" y="549.74" class="st0" width="6.9" height="12.96"/>
<rect x="339.1" y="486.85" class="st0" width="6.9" height="12.96"/>
<rect x="339.1" y="513.34" class="st0" width="6.9" height="12.96"/>
<rect x="340.55" y="547.56" class="st0" width="6.9" height="12.96"/>
<rect x="402.63" y="554.04" class="st0" width="6.9" height="12.96"/>
<rect x="399.03" y="522.24" class="st0" width="6.9" height="12.96"/>
<rect x="395.58" y="490.44" class="st0" width="6.9" height="12.96"/>
<rect x="393.91" y="460.9" class="st0" width="6.9" height="12.96"/>
<rect x="391.91" y="433.06" class="st0" width="6.9" height="12.96"/>
<rect x="390.46" y="406.72" class="st0" width="6.9" height="12.96"/>
<rect x="388.46" y="379.37" class="st0" width="6.9" height="12.96"/>
<rect x="387" y="353.85" class="st0" width="6.9" height="12.96"/>
<rect x="385" y="329.33" class="st0" width="6.9" height="12.96"/>
<rect x="406.08" y="290.79" class="st0" width="6.9" height="12.96"/>
<rect x="409.31" y="314.34" class="st0" width="6.9" height="12.96"/>
<rect x="409.53" y="337.89" class="st0" width="6.9" height="12.96"/>
<rect x="412.76" y="360.33" class="st0" width="6.9" height="12.96"/>
<rect x="412.98" y="388.24" class="st0" width="6.9" height="12.96"/>
<rect x="416.44" y="413.2" class="st0" width="6.9" height="12.96"/>
<rect x="419.89" y="441.75" class="st0" width="6.9" height="12.96"/>
<rect x="423.34" y="470.3" class="st0" width="6.9" height="12.96"/>
<rect x="428.19" y="499.81" class="st0" width="6.9" height="12.96"/>
<rect x="431.64" y="535.2" class="st0" width="6.9" height="12.96"/>
<rect x="431.64" y="567" class="st0" width="6.9" height="12.96"/>
<path class="st0" d="M33.48,519.82c41.76-23.5,41.76-23.5,41.76-23.5l-6.48,51.24L29.16,567L33.48,519.82z"/>
<polygon class="st0" points="81,499.81 75.24,541.68 126.36,513.34 "/>
<polygon class="st0" points="17.78,573.48 132.84,519.82 181.8,656.16 184.68,687.12 46.44,718.08 43.56,766.32 220.68,746.16 
	225,798.72 17.78,808.08 "/>
<polygon class="st0" points="137.16,513.34 189.36,663.95 258.84,674.88 198,531.66 "/>
<polygon class="st0" points="207,541.68 264.6,674.88 339.75,692.88 273.38,562.7 "/>
<polygon class="st0" points="281.16,567 347.45,692.88 410.76,705.12 338.76,582.72 "/>
<polygon class="st0" points="345.96,585.6 419.66,705.12 477.72,720.24 405.93,603.6 "/>
<polygon class="st0" points="415.08,606.48 484.92,720.24 525.24,727.44 453.96,617.28 "/>
<polygon class="st0" points="470.16,630.24 495.72,636.06 500.3,642.26 567,732.48 530.28,727.44 "/>
<polygon class="st0" points="505.8,640.32 518.58,643.2 584.28,736.08 569.88,736.08 "/>
<polygon class="st0" points="189.36,671.28 591.48,741.12 595.28,756.96 189.36,688.2 "/>
<polygon class="st0" points="225,745.44 230.04,796.56 595.28,821.04 595.28,788.64 "/>
<polygon class="st0" points="52.2,724.56 181.08,697.2 590.04,764.16 590.04,783.24 221.4,740.22 202.68,740.22 52.2,756.96 "/>
<polygon class="st0" points="17.78,813.84 225,803.76 590.04,826.08 590.04,830.07 173.16,830.07 17.78,830.07 "/>
</svg>
